<svg width="164" height="35" viewBox="0 0 164 35" fill="none" xmlns="http://www.w3.org/2000/svg">
<path fill-rule="evenodd" clip-rule="evenodd" d="M6.05991 9.23609C8.80025 5.73387 13.1885 3.46493 18.1344 3.46493C23.1094 3.46493 27.5199 5.76065 30.257 9.29799C30.1405 9.41181 30.0344 9.52978 29.9383 9.64759C29.437 10.2645 29.0597 11.059 28.7576 11.8659C28.149 13.4887 27.6848 15.6085 27.255 17.5935L27.2168 17.7719C26.788 19.7533 26.3894 21.5959 25.9074 22.9638C25.6909 23.5783 25.4856 24.0128 25.3035 24.291C25.1135 24.0105 24.898 23.5708 24.6698 22.9475C24.1543 21.5403 23.7208 19.6263 23.2613 17.5827L23.2464 17.5157V17.5157C22.8047 15.5527 22.3363 13.4699 21.7522 11.8756C21.4587 11.0747 21.0987 10.2881 20.6278 9.67694C20.1656 9.07718 19.3963 8.40029 18.2711 8.40029C17.153 8.40029 16.3802 9.06983 15.9113 9.66287C15.4313 10.2701 15.057 11.0534 14.7488 11.8547C14.1279 13.4682 13.6203 15.5789 13.1479 17.5666L13.0992 17.7719C12.6314 19.7409 12.1941 21.5818 11.6977 22.9523C11.5083 23.4757 11.3294 23.8739 11.1676 24.1583C11.0094 23.8752 10.835 23.4797 10.6507 22.9607C10.1745 21.6194 9.75738 19.8301 9.30935 17.9083L9.23091 17.5719C8.76671 15.583 8.26307 13.4685 7.63339 11.85C7.32054 11.0457 6.93787 10.2584 6.44269 9.64838C6.33055 9.5103 6.20313 9.37013 6.05991 9.23609ZM4.40138 11.9253C4.5319 12.1701 4.66997 12.4736 4.81272 12.8406C5.35778 14.2416 5.81951 16.1533 6.29501 18.1905L6.38756 18.5875C6.82048 20.4464 7.27082 22.38 7.80128 23.8739C8.08342 24.6684 8.42414 25.4466 8.86231 26.0514C9.27669 26.6235 10.0201 27.3623 11.1632 27.3623C12.3029 27.3623 13.0481 26.627 13.4653 26.0576C13.9072 25.4542 14.2535 24.6769 14.5413 23.8818C15.0931 22.3584 15.5629 20.3794 16.0125 18.4855V18.4854L16.0813 18.1959C16.5657 16.1574 17.0321 14.2419 17.5732 12.8358C17.8238 12.1843 18.0585 11.7305 18.2627 11.449C18.4564 11.7281 18.6776 12.1747 18.9122 12.815C19.4277 14.2222 19.8608 16.1361 20.3205 18.1798L20.3356 18.2467C20.7771 20.2098 21.2455 22.2926 21.8296 23.8867C22.1231 24.6879 22.4831 25.4745 22.954 26.0855C23.4163 26.6854 24.1855 27.3623 25.3105 27.3623C26.4415 27.3623 27.208 26.6792 27.6647 26.074C28.1285 25.4599 28.4773 24.6707 28.759 23.8708C29.3005 22.3344 29.731 20.3408 30.1415 18.4444V18.4443L30.2003 18.169C30.6424 16.1278 31.0666 14.2214 31.5905 12.8246C31.7039 12.5208 31.8157 12.2617 31.9223 12.0441C32.725 13.7921 33.1702 15.7223 33.1702 17.7513C33.1702 25.6413 26.4387 32.0377 18.1344 32.0377C9.83025 32.0377 3.09839 25.6413 3.09839 17.7513C3.09839 15.6762 3.56401 13.7044 4.40138 11.9253ZM18.1344 0.607666C8.16941 0.607666 0.0911865 8.28312 0.0911865 17.7513C0.0911865 27.2194 8.16941 34.8948 18.1344 34.8948C28.0996 34.8948 36.1774 27.2194 36.1774 17.7513C36.1774 8.28312 28.0996 0.607666 18.1344 0.607666ZM18.4782 11.2098C18.4782 11.2101 18.4746 11.2128 18.4676 11.2167C18.4746 11.2114 18.4782 11.2095 18.4782 11.2098ZM18.0625 11.2117C18.0555 11.2077 18.0521 11.2049 18.0521 11.2045C18.0521 11.2042 18.0556 11.2062 18.0625 11.2117ZM25.0819 24.5623C25.0819 24.5623 25.0851 24.5592 25.0916 24.5552C25.0851 24.5605 25.0819 24.5627 25.0819 24.5623ZM25.5191 24.5508C25.5261 24.5548 25.5298 24.5574 25.5298 24.5579C25.5298 24.5583 25.5261 24.5561 25.5191 24.5508ZM10.855 24.5879C10.8549 24.5875 10.8593 24.5835 10.868 24.5778C10.8594 24.5853 10.855 24.5884 10.855 24.5879ZM11.464 24.5804C11.4726 24.5862 11.4769 24.5901 11.4769 24.5906C11.4769 24.591 11.4725 24.5884 11.464 24.5804Z" fill="#81818B"/>
<path d="M46.1404 27.9007L41.765 13.6801H45.5975L48.1926 23.9154L51.2098 13.6801H55.4948L58.5125 23.9154L61.1375 13.6801H64.97L60.5642 27.9007H56.5511L53.3523 17.2639L50.154 27.9007H46.1404Z" fill="#81818B"/>
<path d="M70.5933 28.2449C69.306 28.2449 68.2497 28.0533 67.4249 27.6711C66.6006 27.2698 65.9869 26.7442 65.5842 26.0943C65.1821 25.4444 64.981 24.7277 64.981 23.9442C64.981 22.6254 65.5239 21.5549 66.6101 20.733C67.6963 19.9112 69.3264 19.5002 71.4989 19.5002H75.3009V19.1562C75.3009 18.1813 75.009 17.4646 74.4258 17.0059C73.8425 16.5471 73.118 16.3178 72.2533 16.3178C71.4684 16.3178 70.7844 16.4993 70.2011 16.8625C69.6178 17.2066 69.2556 17.7226 69.1149 18.4107H65.3427C65.4435 17.3786 65.8058 16.4802 66.429 15.7157C67.0731 14.9512 67.8979 14.3682 68.9033 13.9668C69.9097 13.5463 71.0358 13.3361 72.2832 13.3361C74.4158 13.3361 76.0953 13.8425 77.3227 14.8556C78.5496 15.8686 79.1634 17.3022 79.1634 19.1562V27.9007H75.8737L75.512 25.6072C75.0694 26.3717 74.4457 27.0022 73.6414 27.4995C72.8565 27.9963 71.8407 28.2449 70.5933 28.2449ZM71.4684 25.3776C72.5751 25.3776 73.4298 25.0334 74.0331 24.3455C74.6568 23.6575 75.0495 22.8067 75.2106 21.7938H71.921C70.8951 21.7938 70.1612 21.9754 69.7181 22.3386C69.276 22.6824 69.0545 23.1129 69.0545 23.6287C69.0545 24.1831 69.276 24.6131 69.7181 24.9188C70.1612 25.2245 70.7439 25.3776 71.4684 25.3776Z" fill="#81818B"/>
<path d="M85.2434 27.9007L79.7519 13.6801H83.7949L87.597 24.4317L91.399 13.6801H95.4426L89.9206 27.9007H85.2434Z" fill="#81818B"/>
<path d="M103.207 28.2449C101.699 28.2449 100.361 27.9388 99.1937 27.3273C98.0272 26.7155 97.1121 25.8554 96.448 24.7467C95.7839 23.6385 95.4526 22.3577 95.4526 20.905C95.4526 19.4333 95.7744 18.124 96.4175 16.9772C97.0817 15.8304 97.9868 14.9416 99.1339 14.3108C100.3 13.661 101.668 13.3361 103.237 13.3361C104.706 13.3361 106.004 13.6419 107.13 14.2535C108.256 14.8651 109.132 15.7061 109.755 16.7765C110.399 17.8277 110.721 19.0032 110.721 20.303C110.721 20.5132 110.711 20.733 110.691 20.9624C110.691 21.1918 110.68 21.4307 110.66 21.6792H99.2846C99.3649 22.7877 99.7676 23.6575 100.492 24.2884C101.235 24.9188 102.131 25.2343 103.177 25.2343C103.961 25.2343 104.615 25.0719 105.138 24.7467C105.681 24.403 106.084 23.9632 106.345 23.4279H110.268C109.987 24.3264 109.514 25.1485 108.85 25.8939C108.206 26.6199 107.402 27.1933 106.436 27.614C105.491 28.0343 104.414 28.2449 103.207 28.2449ZM103.237 16.3178C102.292 16.3178 101.457 16.5758 100.733 17.0919C100.009 17.5888 99.546 18.3534 99.3444 19.3855H106.798C106.737 18.4489 106.376 17.7035 105.712 17.1492C105.047 16.5949 104.223 16.3178 103.237 16.3178Z" fill="#81818B"/>
<path d="M112.762 27.9007V7.25781H116.625V27.9007H112.762Z" fill="#81818B"/>
<path d="M126.636 28.2449C125.128 28.2449 123.79 27.9388 122.623 27.3273C121.456 26.7155 120.541 25.8554 119.877 24.7467C119.213 23.6385 118.882 22.3577 118.882 20.905C118.882 19.4333 119.204 18.124 119.847 16.9772C120.511 15.8304 121.416 14.9416 122.563 14.3108C123.73 13.661 125.097 13.3361 126.666 13.3361C128.135 13.3361 129.433 13.6419 130.559 14.2535C131.685 14.8651 132.561 15.7061 133.184 16.7765C133.828 17.8277 134.15 19.0032 134.15 20.303C134.15 20.5132 134.14 20.733 134.12 20.9624C134.12 21.1918 134.109 21.4307 134.089 21.6792H122.714C122.794 22.7877 123.197 23.6575 123.921 24.2884C124.665 24.9188 125.56 25.2343 126.607 25.2343C127.39 25.2343 128.045 25.0719 128.567 24.7467C129.111 24.403 129.513 23.9632 129.774 23.4279H133.698C133.416 24.3264 132.943 25.1485 132.279 25.8939C131.635 26.6199 130.831 27.1933 129.865 27.614C128.92 28.0343 127.843 28.2449 126.636 28.2449ZM126.666 16.3178C125.721 16.3178 124.886 16.5758 124.162 17.0919C123.438 17.5888 122.975 18.3534 122.774 19.3855H130.227C130.167 18.4489 129.805 17.7035 129.141 17.1492C128.477 16.5949 127.652 16.3178 126.666 16.3178Z" fill="#81818B"/>
<path d="M142.378 28.2449C141.05 28.2449 139.883 28.044 138.877 27.6428C137.871 27.222 137.066 26.6487 136.463 25.9222C135.86 25.1962 135.497 24.3552 135.377 23.3996H139.269C139.39 23.9535 139.712 24.4317 140.235 24.833C140.778 25.2152 141.472 25.4064 142.317 25.4064C143.162 25.4064 143.776 25.244 144.157 24.9188C144.56 24.5941 144.761 24.2212 144.761 23.8008C144.761 23.189 144.48 22.778 143.916 22.5678C143.353 22.3386 142.568 22.1188 141.562 21.9085C140.919 21.7747 140.266 21.6123 139.601 21.4211C138.937 21.23 138.324 20.991 137.761 20.7044C137.217 20.3985 136.775 20.0163 136.432 19.5575C136.091 19.0797 135.92 18.4967 135.92 17.8086C135.92 16.5471 136.443 15.4864 137.489 14.6262C138.555 13.7661 140.043 13.3361 141.955 13.3361C143.725 13.3361 145.133 13.7279 146.179 14.5115C147.245 15.2952 147.879 16.3751 148.081 17.7513H144.429C144.208 16.7001 143.373 16.1744 141.925 16.1744C141.201 16.1744 140.637 16.3082 140.235 16.5758C139.853 16.8434 139.662 17.1779 139.662 17.5793C139.662 17.9998 139.953 18.3343 140.537 18.5828C141.12 18.8312 141.895 19.0606 142.86 19.2709C143.906 19.5002 144.861 19.7582 145.727 20.0449C146.612 20.3125 147.316 20.7235 147.839 21.2778C148.362 21.8129 148.624 22.5869 148.624 23.6C148.644 24.4795 148.402 25.2723 147.9 25.9797C147.397 26.6867 146.673 27.2411 145.727 27.6428C144.782 28.044 143.665 28.2449 142.378 28.2449Z" fill="#81818B"/>
<path d="M157.024 28.2449C155.696 28.2449 154.529 28.044 153.524 27.6428C152.518 27.222 151.713 26.6487 151.11 25.9222C150.506 25.1962 150.144 24.3552 150.024 23.3996H153.916C154.037 23.9535 154.359 24.4317 154.882 24.833C155.425 25.2152 156.118 25.4064 156.964 25.4064C157.808 25.4064 158.422 25.244 158.804 24.9188C159.206 24.5941 159.408 24.2212 159.408 23.8008C159.408 23.189 159.126 22.778 158.563 22.5678C158 22.3386 157.215 22.1188 156.209 21.9085C155.566 21.7747 154.912 21.6123 154.248 21.4211C153.584 21.23 152.971 20.991 152.407 20.7044C151.864 20.3985 151.421 20.0163 151.079 19.5575C150.737 19.0797 150.567 18.4967 150.567 17.8086C150.567 16.5471 151.09 15.4864 152.136 14.6262C153.202 13.7661 154.69 13.3361 156.601 13.3361C158.372 13.3361 159.78 13.7279 160.826 14.5115C161.892 15.2952 162.526 16.3751 162.727 17.7513H159.076C158.855 16.7001 158.02 16.1744 156.571 16.1744C155.847 16.1744 155.284 16.3082 154.882 16.5758C154.499 16.8434 154.308 17.1779 154.308 17.5793C154.308 17.9998 154.6 18.3343 155.183 18.5828C155.767 18.8312 156.541 19.0606 157.507 19.2709C158.553 19.5002 159.508 19.7582 160.374 20.0449C161.259 20.3125 161.963 20.7235 162.486 21.2778C163.009 21.8129 163.27 22.5869 163.27 23.6C163.29 24.4795 163.049 25.2723 162.546 25.9797C162.043 26.6867 161.319 27.2411 160.374 27.6428C159.428 28.044 158.311 28.2449 157.024 28.2449Z" fill="#81818B"/>
</svg>
